# xmcd CD database file
#
# Track frame offsets:
#	150
#	23664
#	39233
#	60034
#	84161
#	107058
#	126608
#	151287
#	169284
#	187251
#	208673
#
# Disc length: 3005 seconds
#
# Revision: 0
# Processed by: cddbd v1.5.2PL0 Copyright (c) Steve Scherf et al.
# Submitted via: CDex 1.70beta2
#
DISCID=8a0bbb0b
DTITLE=Madeleine Peyroux - Bare Bones
DYEAR=2009
DGENRE=Jazz
TTITLE0=Instead
TTITLE1=Bare Bones
TTITLE2=Damn The Circumstances
TTITLE3=River Of Tears
TTITLE4=You Can't Do Me
TTITLE5=Love And Treachery
TTITLE6=Our Lady Of Pigalle
TTITLE7=Homeless Happiness
TTITLE8=To Love You All Over Again
TTITLE9=I Must Be Saved
TTITLE10=Somethin' Grand
EXTD=YEAR: 2009
EXTT0=
EXTT1=
EXTT2=
EXTT3=
EXTT4=
EXTT5=
EXTT6=
EXTT7=
EXTT8=
EXTT9=
EXTT10=
PLAYORDER=
